# xmcd
# 
# Track frame offsets:
#     150
#     19418
#     34743
#     48788
#     66859
#     86412
#     96755
#     114495
#     133725
#     154952
#     174755
# 
# Disc length: 2628
# 
# Revision: 2
# Processed by: cddbd v1.5.2PL0 Copyright (c) Steve Scherf et al.
# Submitted via: fre:ac v1.0.31
# 
DISCID=870a420b
DTITLE=Gomez - A New Tide
DYEAR=2009
DGENRE=Rock/Pop
TTITLE0=Mix
TTITLE1=Little Pieces
TTITLE2=If I Ask You Nicely
TTITLE3=Lost Track
TTITLE4=Win Park Slope
TTITLE5=Bone Tired
TTITLE6=Airstream Driver
TTITLE7=Natural Reaction
TTITLE8=Very Strange
TTITLE9=Other Plans
TTITLE10=Sunset Gates
EXTD=
EXTT0=
EXTT1=
EXTT2=
EXTT3=
EXTT4=
EXTT5=
EXTT6=
EXTT7=
EXTT8=
EXTT9=
EXTT10=
PLAYORDER=
